<mxfile host="65bd71144e">
    <diagram id="P6uJVCGdqMng0qW6IFwS" name="第 1 页">
        <mxGraphModel dx="2746" dy="5057" grid="1" gridSize="10" guides="0" tooltips="1" connect="1" arrows="1" fold="1" page="0" pageScale="1" pageWidth="827" pageHeight="1169" math="0" shadow="0">
            <root>
                <mxCell id="0"/>
                <mxCell id="1" parent="0"/>
                <mxCell id="99" value="&lt;h1 class=&quot;word&quot; style=&quot;box-sizing: border-box; margin: 0px; padding: 0px; font-size: 14px; color: rgb(51, 51, 51); height: auto; line-height: 14px;&quot;&gt;&lt;span class=&quot;basic-word&quot; style=&quot;box-sizing: border-box ; margin-right: 8px ; display: inline-block ; text-overflow: ellipsis ; overflow: hidden ; font-size: 30px ; line-height: 35px ; vertical-align: middle ; font-weight: normal&quot;&gt;browser&lt;/span&gt;&lt;/h1&gt;" style="rounded=1;whiteSpace=wrap;html=1;fillColor=#f5f5f5;strokeColor=#666666;fontColor=#333333;labelBackgroundColor=none;" parent="1" vertex="1">
                    <mxGeometry x="40" y="190" width="190" height="120" as="geometry"/>
                </mxCell>
                <mxCell id="100" value="" style="endArrow=classic;html=1;exitX=1;exitY=0.5;exitDx=0;exitDy=0;fontSize=14;entryX=0;entryY=0.5;entryDx=0;entryDy=0;shadow=0;strokeWidth=3;endSize=0;targetPerimeterSpacing=0;startSize=0;sketch=0;startArrow=classic;startFill=1;endFill=1;" parent="1" source="99" target="102" edge="1">
                    <mxGeometry width="50" height="50" relative="1" as="geometry">
                        <mxPoint x="320" y="280" as="sourcePoint"/>
                        <mxPoint x="390.0000000000002" y="250" as="targetPoint"/>
                    </mxGeometry>
                </mxCell>
                <mxCell id="102" value="&lt;h1 class=&quot;word&quot; style=&quot;box-sizing: border-box; margin: 0px; padding: 0px; font-size: 14px; height: auto; line-height: 14px;&quot;&gt;&lt;span class=&quot;basic-word&quot; style=&quot;box-sizing: border-box ; margin-right: 8px ; display: inline-block ; text-overflow: ellipsis ; overflow: hidden ; font-size: 30px ; line-height: 35px ; vertical-align: middle ; font-weight: normal&quot;&gt;Web server&lt;/span&gt;&lt;/h1&gt;" style="rounded=1;whiteSpace=wrap;html=1;fillColor=#f5f5f5;strokeColor=#666666;fontColor=#333333;labelBackgroundColor=none;" parent="1" vertex="1">
                    <mxGeometry x="390" y="190" width="190" height="120" as="geometry"/>
                </mxCell>
                <mxCell id="103" value="&lt;h1 class=&quot;word&quot; style=&quot;box-sizing: border-box; margin: 0px; padding: 0px; font-size: 14px; height: auto; line-height: 14px;&quot;&gt;&lt;span class=&quot;basic-word&quot; style=&quot;box-sizing: border-box ; margin-right: 8px ; display: inline-block ; text-overflow: ellipsis ; overflow: hidden ; font-size: 30px ; line-height: 35px ; vertical-align: middle ; font-weight: normal&quot;&gt;User config server&lt;/span&gt;&lt;/h1&gt;" style="rounded=1;whiteSpace=wrap;html=1;fillColor=#f5f5f5;strokeColor=#666666;fontColor=#333333;labelBackgroundColor=none;" parent="1" vertex="1">
                    <mxGeometry x="760" y="-250" width="190" height="120" as="geometry"/>
                </mxCell>
                <mxCell id="226" style="edgeStyle=orthogonalEdgeStyle;rounded=1;sketch=0;orthogonalLoop=1;jettySize=auto;html=1;exitX=1;exitY=0.5;exitDx=0;exitDy=0;entryX=0;entryY=0.5;entryDx=0;entryDy=0;shadow=0;fontSize=22;startArrow=classic;startFill=1;endArrow=classic;endFill=1;startSize=0;endSize=0;targetPerimeterSpacing=0;strokeWidth=3;" parent="1" source="105" target="140" edge="1">
                    <mxGeometry relative="1" as="geometry"/>
                </mxCell>
                <mxCell id="105" value="&lt;h1 class=&quot;word&quot; style=&quot;box-sizing: border-box; margin: 0px; padding: 0px; height: auto; line-height: 14px;&quot;&gt;&lt;span style=&quot;font-size: 30px ; font-weight: normal&quot;&gt;Business&lt;/span&gt;&lt;/h1&gt;&lt;h1 class=&quot;word&quot; style=&quot;box-sizing: border-box; margin: 0px; padding: 0px; height: auto; line-height: 14px;&quot;&gt;&lt;span style=&quot;font-size: 30px ; font-weight: normal&quot;&gt;&lt;br&gt;&lt;/span&gt;&lt;/h1&gt;&lt;h1 class=&quot;word&quot; style=&quot;box-sizing: border-box; margin: 0px; padding: 0px; height: auto; line-height: 14px;&quot;&gt;&lt;span style=&quot;font-size: 30px&quot;&gt;&lt;span style=&quot;font-weight: normal&quot;&gt;&amp;nbsp;distribution&lt;/span&gt;&amp;nbsp;&amp;nbsp;&lt;/span&gt;&lt;br&gt;&lt;/h1&gt;&lt;div&gt;&lt;span style=&quot;font-family: &amp;quot;arial&amp;quot; , &amp;quot;microsoft yahei&amp;quot; , &amp;quot;\\5fae软雅黑&amp;quot; , &amp;quot;\\5b8b体&amp;quot; , &amp;quot;malgun gothic&amp;quot; , &amp;quot;meiryo&amp;quot; , sans-serif ; font-weight: normal ; line-height: 21px ; font-size: 30px&quot;&gt;&lt;h1 class=&quot;word&quot; style=&quot;font-family: helvetica; box-sizing: border-box; margin: 0px; padding: 0px; font-size: 14px; height: auto; line-height: 14px;&quot;&gt;&lt;span class=&quot;basic-word&quot; style=&quot;box-sizing: border-box ; margin-right: 8px ; display: inline-block ; text-overflow: ellipsis ; overflow: hidden ; font-size: 30px ; line-height: 35px ; vertical-align: middle ; font-weight: normal&quot;&gt;server&lt;/span&gt;&lt;/h1&gt;&lt;/span&gt;&lt;/div&gt;" style="rounded=1;whiteSpace=wrap;html=1;fillColor=#f5f5f5;strokeColor=#666666;fontColor=#333333;labelBackgroundColor=none;" parent="1" vertex="1">
                    <mxGeometry x="760" y="360" width="190" height="120" as="geometry"/>
                </mxCell>
                <mxCell id="129" value="" style="edgeStyle=elbowEdgeStyle;elbow=horizontal;endArrow=classic;html=1;shadow=0;fontSize=20;startSize=0;endSize=0;targetPerimeterSpacing=0;strokeWidth=3;startArrow=classic;startFill=1;exitX=0.5;exitY=0;exitDx=0;exitDy=0;entryX=0;entryY=0.5;entryDx=0;entryDy=0;" parent="1" source="102" target="103" edge="1">
                    <mxGeometry width="50" height="50" relative="1" as="geometry">
                        <mxPoint x="360" y="-100" as="sourcePoint"/>
                        <mxPoint x="700" y="-360" as="targetPoint"/>
                        <Array as="points">
                            <mxPoint x="485" y="90"/>
                            <mxPoint x="485" y="-80"/>
                        </Array>
                    </mxGeometry>
                </mxCell>
                <mxCell id="135" value="" style="edgeStyle=elbowEdgeStyle;elbow=horizontal;endArrow=classic;html=1;shadow=0;fontSize=20;startSize=0;endSize=0;targetPerimeterSpacing=0;strokeWidth=3;startArrow=classic;startFill=1;entryX=0;entryY=0.5;entryDx=0;entryDy=0;exitX=0.5;exitY=1;exitDx=0;exitDy=0;" parent="1" source="102" target="105" edge="1">
                    <mxGeometry width="50" height="50" relative="1" as="geometry">
                        <mxPoint x="500" y="340" as="sourcePoint"/>
                        <mxPoint x="740" y="439.9999999999998" as="targetPoint"/>
                        <Array as="points">
                            <mxPoint x="485" y="360"/>
                            <mxPoint x="465" y="420"/>
                            <mxPoint x="465" y="250"/>
                        </Array>
                    </mxGeometry>
                </mxCell>
                <mxCell id="138" value="&lt;h1 class=&quot;word&quot; style=&quot;box-sizing: border-box ; margin: 0px ; padding: 0px ; height: auto ; line-height: 14px&quot;&gt;&lt;span style=&quot;font-size: 30px ; font-weight: normal&quot;&gt;Data&amp;nbsp;&amp;nbsp;&lt;/span&gt;&lt;br&gt;&lt;/h1&gt;&lt;div&gt;&lt;span style=&quot;font-family: &amp;#34;arial&amp;#34; , &amp;#34;microsoft yahei&amp;#34; , &amp;#34;\\5fae软雅黑&amp;#34; , &amp;#34;\\5b8b体&amp;#34; , &amp;#34;malgun gothic&amp;#34; , &amp;#34;meiryo&amp;#34; , sans-serif ; font-weight: normal ; line-height: 21px ; font-size: 30px&quot;&gt;&lt;h1 class=&quot;word&quot; style=&quot;font-family: &amp;#34;helvetica&amp;#34; ; box-sizing: border-box ; margin: 0px ; padding: 0px ; font-size: 14px ; height: auto ; line-height: 14px&quot;&gt;&lt;span class=&quot;basic-word&quot; style=&quot;box-sizing: border-box ; margin-right: 8px ; display: inline-block ; text-overflow: ellipsis ; overflow: hidden ; font-size: 30px ; line-height: 35px ; vertical-align: middle ; font-weight: normal&quot;&gt;server&lt;/span&gt;&lt;/h1&gt;&lt;/span&gt;&lt;/div&gt;" style="rounded=1;whiteSpace=wrap;html=1;fillColor=#f5f5f5;strokeColor=#666666;fontColor=#333333;labelBackgroundColor=none;" parent="1" vertex="1">
                    <mxGeometry x="1740" y="55" width="190" height="120" as="geometry"/>
                </mxCell>
                <mxCell id="139" value="&lt;h1 class=&quot;word&quot; style=&quot;text-align: left; box-sizing: border-box; margin: 0px; padding: 0px; height: auto; line-height: 14px;&quot;&gt;&lt;span style=&quot;font-weight: normal&quot;&gt;&lt;font style=&quot;font-size: 24px&quot;&gt;Multimedia data&lt;/font&gt;&amp;nbsp;&amp;nbsp;&lt;/span&gt;&lt;/h1&gt;&lt;h1 class=&quot;word&quot; style=&quot;text-align: left; box-sizing: border-box; margin: 0px; padding: 0px; height: auto; line-height: 14px;&quot;&gt;&lt;span style=&quot;font-weight: normal&quot;&gt;&lt;br&gt;&lt;/span&gt;&lt;/h1&gt;&lt;h1 class=&quot;word&quot; style=&quot;box-sizing: border-box; margin: 0px; padding: 0px; height: auto; line-height: 14px;&quot;&gt;&lt;span style=&quot;font-weight: normal&quot;&gt;server&lt;/span&gt;&lt;/h1&gt;" style="rounded=1;whiteSpace=wrap;html=1;fillColor=#f5f5f5;strokeColor=#666666;fontColor=#333333;labelBackgroundColor=none;" parent="1" vertex="1">
                    <mxGeometry x="1740" y="360" width="190" height="120" as="geometry"/>
                </mxCell>
                <mxCell id="140" value="&lt;h1 class=&quot;word&quot; style=&quot;box-sizing: border-box; margin: 0px; padding: 0px; height: auto; line-height: 14px;&quot;&gt;&lt;span style=&quot;font-size: 30px ; font-weight: 400&quot;&gt;Authority&lt;/span&gt;&amp;nbsp;&amp;nbsp;&lt;/h1&gt;&lt;div&gt;&lt;span style=&quot;font-family: &amp;quot;arial&amp;quot; , &amp;quot;microsoft yahei&amp;quot; , &amp;quot;\\5fae软雅黑&amp;quot; , &amp;quot;\\5b8b体&amp;quot; , &amp;quot;malgun gothic&amp;quot; , &amp;quot;meiryo&amp;quot; , sans-serif ; font-weight: normal ; line-height: 21px ; font-size: 30px&quot;&gt;&lt;h1 class=&quot;word&quot; style=&quot;font-family: helvetica; box-sizing: border-box; margin: 0px; padding: 0px; font-size: 14px; height: auto; line-height: 14px;&quot;&gt;&lt;span class=&quot;basic-word&quot; style=&quot;box-sizing: border-box ; margin-right: 8px ; display: inline-block ; text-overflow: ellipsis ; overflow: hidden ; font-size: 30px ; line-height: 35px ; vertical-align: middle ; font-weight: normal&quot;&gt;server&lt;/span&gt;&lt;/h1&gt;&lt;/span&gt;&lt;/div&gt;" style="rounded=1;whiteSpace=wrap;html=1;fillColor=#f5f5f5;strokeColor=#666666;fontColor=#333333;labelBackgroundColor=none;" parent="1" vertex="1">
                    <mxGeometry x="1130" y="360" width="190" height="120" as="geometry"/>
                </mxCell>
                <mxCell id="141" value="&lt;h1 class=&quot;word&quot; style=&quot;box-sizing: border-box; margin: 0px; padding: 0px; height: auto; line-height: 14px;&quot;&gt;&lt;span style=&quot;font-size: 30px ; font-weight: 400&quot;&gt;File system&lt;/span&gt;&amp;nbsp;&amp;nbsp;&lt;/h1&gt;&lt;div&gt;&lt;span style=&quot;font-family: &amp;quot;arial&amp;quot; , &amp;quot;microsoft yahei&amp;quot; , &amp;quot;\\5fae软雅黑&amp;quot; , &amp;quot;\\5b8b体&amp;quot; , &amp;quot;malgun gothic&amp;quot; , &amp;quot;meiryo&amp;quot; , sans-serif ; font-weight: normal ; line-height: 21px ; font-size: 30px&quot;&gt;&lt;h1 class=&quot;word&quot; style=&quot;font-family: helvetica; box-sizing: border-box; margin: 0px; padding: 0px; font-size: 14px; height: auto; line-height: 14px;&quot;&gt;&lt;span class=&quot;basic-word&quot; style=&quot;box-sizing: border-box ; margin-right: 8px ; display: inline-block ; text-overflow: ellipsis ; overflow: hidden ; font-size: 30px ; line-height: 35px ; vertical-align: middle ; font-weight: normal&quot;&gt;server&lt;/span&gt;&lt;/h1&gt;&lt;/span&gt;&lt;/div&gt;" style="rounded=1;whiteSpace=wrap;html=1;fillColor=#f5f5f5;strokeColor=#666666;fontColor=#333333;labelBackgroundColor=none;" parent="1" vertex="1">
                    <mxGeometry x="1740" y="620" width="190" height="120" as="geometry"/>
                </mxCell>
                <mxCell id="142" value="&lt;h1 class=&quot;word&quot; style=&quot;box-sizing: border-box ; margin: 0px ; padding: 0px ; height: auto ; line-height: 14px&quot;&gt;&lt;span style=&quot;font-weight: normal&quot;&gt;&lt;font style=&quot;font-size: 23px&quot;&gt;Topological data&lt;/font&gt;&lt;/span&gt;&amp;nbsp;&lt;/h1&gt;&lt;h1 class=&quot;word&quot; style=&quot;box-sizing: border-box ; margin: 0px ; padding: 0px ; height: auto ; line-height: 14px&quot;&gt;&lt;br&gt;&lt;/h1&gt;&lt;h1 class=&quot;word&quot; style=&quot;box-sizing: border-box ; margin: 0px ; padding: 0px ; height: auto ; line-height: 14px&quot;&gt;&lt;span style=&quot;font-weight: normal&quot;&gt;server&lt;/span&gt;&lt;/h1&gt;" style="rounded=1;whiteSpace=wrap;html=1;fillColor=#f5f5f5;strokeColor=#666666;fontColor=#333333;labelBackgroundColor=none;" parent="1" vertex="1">
                    <mxGeometry x="1740" y="810" width="190" height="120" as="geometry"/>
                </mxCell>
                <mxCell id="143" value="" style="shape=datastore;whiteSpace=wrap;html=1;labelBackgroundColor=none;fontSize=16;strokeWidth=3;" parent="1" vertex="1">
                    <mxGeometry x="2140" y="-70" width="60" height="70" as="geometry"/>
                </mxCell>
                <mxCell id="146" value="" style="shape=datastore;whiteSpace=wrap;html=1;labelBackgroundColor=none;fontSize=16;strokeWidth=3;" parent="1" vertex="1">
                    <mxGeometry x="2140" y="35" width="60" height="70" as="geometry"/>
                </mxCell>
                <mxCell id="148" value="" style="endArrow=classic;dashed=1;html=1;dashPattern=1 3;strokeWidth=3;shadow=0;fontSize=16;startSize=0;endSize=0;targetPerimeterSpacing=0;exitX=1;exitY=0.25;exitDx=0;exitDy=0;entryX=0;entryY=0.5;entryDx=0;entryDy=0;startArrow=classic;startFill=1;endFill=1;" parent="1" source="138" target="143" edge="1">
                    <mxGeometry width="50" height="50" relative="1" as="geometry">
                        <mxPoint x="1990" y="-5" as="sourcePoint"/>
                        <mxPoint x="2040" y="-55" as="targetPoint"/>
                    </mxGeometry>
                </mxCell>
                <mxCell id="150" value="" style="shape=waypoint;sketch=0;fillStyle=solid;size=6;pointerEvents=1;points=[];fillColor=none;resizable=0;rotatable=0;perimeter=centerPerimeter;snapToPoint=1;labelBackgroundColor=none;fontSize=16;strokeWidth=3;" parent="1" vertex="1">
                    <mxGeometry x="2120" y="135" width="40" height="40" as="geometry"/>
                </mxCell>
                <mxCell id="151" value="" style="shape=waypoint;sketch=0;fillStyle=solid;size=6;pointerEvents=1;points=[];fillColor=none;resizable=0;rotatable=0;perimeter=centerPerimeter;snapToPoint=1;labelBackgroundColor=none;fontSize=16;strokeWidth=3;" parent="1" vertex="1">
                    <mxGeometry x="2150" y="135" width="40" height="40" as="geometry"/>
                </mxCell>
                <mxCell id="152" value="" style="shape=waypoint;sketch=0;fillStyle=solid;size=6;pointerEvents=1;points=[];fillColor=none;resizable=0;rotatable=0;perimeter=centerPerimeter;snapToPoint=1;labelBackgroundColor=none;fontSize=16;strokeWidth=3;" parent="1" vertex="1">
                    <mxGeometry x="2180" y="135" width="40" height="40" as="geometry"/>
                </mxCell>
                <mxCell id="156" value="LocalData" style="text;html=1;align=center;verticalAlign=middle;resizable=0;points=[];autosize=1;strokeColor=none;fontSize=20;" parent="1" vertex="1">
                    <mxGeometry x="2200" y="-50" width="110" height="30" as="geometry"/>
                </mxCell>
                <mxCell id="159" value="msSQL" style="text;html=1;align=center;verticalAlign=middle;resizable=0;points=[];autosize=1;strokeColor=none;fontSize=20;" parent="1" vertex="1">
                    <mxGeometry x="2210" y="135" width="80" height="30" as="geometry"/>
                </mxCell>
                <mxCell id="160" value="" style="shape=datastore;whiteSpace=wrap;html=1;labelBackgroundColor=none;fontSize=16;strokeWidth=3;" parent="1" vertex="1">
                    <mxGeometry x="1070" y="-380" width="60" height="70" as="geometry"/>
                </mxCell>
                <mxCell id="161" value="" style="shape=datastore;whiteSpace=wrap;html=1;labelBackgroundColor=none;fontSize=16;strokeWidth=3;" parent="1" vertex="1">
                    <mxGeometry x="1070" y="-240" width="60" height="70" as="geometry"/>
                </mxCell>
                <mxCell id="162" value="dynamic link" style="text;html=1;align=center;verticalAlign=middle;resizable=0;points=[];autosize=1;strokeColor=#666666;fontSize=22;direction=west;labelBackgroundColor=none;fontColor=#333333;rounded=1;shadow=0;fillColor=#FFFFFF;" parent="1" vertex="1">
                    <mxGeometry x="1970" y="-5" width="140" height="30" as="geometry"/>
                </mxCell>
                <mxCell id="170" value="ObjectBox&amp;nbsp;" style="text;html=1;align=center;verticalAlign=middle;resizable=0;points=[];autosize=1;strokeColor=none;fontSize=22;" parent="1" vertex="1">
                    <mxGeometry x="1140" y="-365" width="120" height="30" as="geometry"/>
                </mxCell>
                <mxCell id="171" value="PostgreSQL" style="text;html=1;align=center;verticalAlign=middle;resizable=0;points=[];autosize=1;strokeColor=none;fontSize=22;" parent="1" vertex="1">
                    <mxGeometry x="1140" y="-220" width="140" height="30" as="geometry"/>
                </mxCell>
                <mxCell id="172" value="" style="edgeStyle=elbowEdgeStyle;elbow=horizontal;endArrow=classic;html=1;shadow=0;fontSize=20;startSize=0;endSize=0;targetPerimeterSpacing=0;strokeWidth=3;startArrow=classic;startFill=1;exitX=0.75;exitY=0;exitDx=0;exitDy=0;entryX=0;entryY=0.5;entryDx=0;entryDy=0;" parent="1" source="103" target="160" edge="1">
                    <mxGeometry width="50" height="50" relative="1" as="geometry">
                        <mxPoint x="760" y="-269.99999999999955" as="sourcePoint"/>
                        <mxPoint x="1035" y="-350.00000000000045" as="targetPoint"/>
                        <Array as="points">
                            <mxPoint x="903" y="-300"/>
                            <mxPoint x="760" y="-370"/>
                            <mxPoint x="760" y="-540"/>
                        </Array>
                    </mxGeometry>
                </mxCell>
                <mxCell id="173" value="" style="edgeStyle=elbowEdgeStyle;elbow=horizontal;endArrow=classic;html=1;shadow=0;fontSize=20;startSize=0;endSize=0;targetPerimeterSpacing=0;strokeWidth=3;startArrow=classic;startFill=1;entryX=0;entryY=0.5;entryDx=0;entryDy=0;" parent="1" target="161" edge="1">
                    <mxGeometry width="50" height="50" relative="1" as="geometry">
                        <mxPoint x="950" y="-205" as="sourcePoint"/>
                        <mxPoint x="1080" y="-335" as="targetPoint"/>
                        <Array as="points">
                            <mxPoint x="990" y="-220"/>
                            <mxPoint x="770" y="-530"/>
                        </Array>
                    </mxGeometry>
                </mxCell>
                <mxCell id="174" value="" style="shape=datastore;whiteSpace=wrap;html=1;labelBackgroundColor=none;fontSize=16;strokeWidth=3;" parent="1" vertex="1">
                    <mxGeometry x="2140" y="310" width="60" height="70" as="geometry"/>
                </mxCell>
                <mxCell id="175" value="" style="shape=datastore;whiteSpace=wrap;html=1;labelBackgroundColor=none;fontSize=16;strokeWidth=3;" parent="1" vertex="1">
                    <mxGeometry x="2145" y="410" width="60" height="70" as="geometry"/>
                </mxCell>
                <mxCell id="176" value="" style="shape=waypoint;sketch=0;fillStyle=solid;size=6;pointerEvents=1;points=[];fillColor=none;resizable=0;rotatable=0;perimeter=centerPerimeter;snapToPoint=1;labelBackgroundColor=none;fontSize=16;strokeWidth=3;" parent="1" vertex="1">
                    <mxGeometry x="2130" y="520" width="40" height="40" as="geometry"/>
                </mxCell>
                <mxCell id="177" value="" style="shape=waypoint;sketch=0;fillStyle=solid;size=6;pointerEvents=1;points=[];fillColor=none;resizable=0;rotatable=0;perimeter=centerPerimeter;snapToPoint=1;labelBackgroundColor=none;fontSize=16;strokeWidth=3;" parent="1" vertex="1">
                    <mxGeometry x="2160" y="520" width="40" height="40" as="geometry"/>
                </mxCell>
                <mxCell id="178" value="" style="shape=waypoint;sketch=0;fillStyle=solid;size=6;pointerEvents=1;points=[];fillColor=none;resizable=0;rotatable=0;perimeter=centerPerimeter;snapToPoint=1;labelBackgroundColor=none;fontSize=16;strokeWidth=3;" parent="1" vertex="1">
                    <mxGeometry x="2190" y="520" width="40" height="40" as="geometry"/>
                </mxCell>
                <mxCell id="179" value="&lt;h1 class=&quot;word&quot; style=&quot;text-align: left ; box-sizing: border-box ; margin: 0px ; padding: 0px ; height: auto ; line-height: 14px&quot;&gt;&lt;span style=&quot;font-weight: normal&quot;&gt;&lt;font style=&quot;font-size: 20px&quot; color=&quot;#ffffff&quot;&gt;MultimediaData&lt;/font&gt;&lt;/span&gt;&lt;/h1&gt;&lt;h1 class=&quot;word&quot; style=&quot;text-align: left ; box-sizing: border-box ; margin: 0px ; padding: 0px ; height: auto ; line-height: 14px&quot;&gt;&lt;span style=&quot;font-weight: normal&quot;&gt;&lt;font style=&quot;font-size: 20px&quot; color=&quot;#ffffff&quot;&gt;&amp;nbsp;&lt;/font&gt;&lt;/span&gt;&lt;/h1&gt;" style="text;html=1;align=center;verticalAlign=middle;resizable=0;points=[];autosize=1;strokeColor=none;fontSize=20;" parent="1" vertex="1">
                    <mxGeometry x="2210" y="330" width="150" height="50" as="geometry"/>
                </mxCell>
                <mxCell id="188" value="dynamic link" style="text;html=1;align=center;verticalAlign=middle;resizable=0;points=[];autosize=1;strokeColor=#666666;fontSize=22;direction=west;labelBackgroundColor=none;fontColor=#333333;rounded=1;shadow=0;fillColor=#FFFFFF;" parent="1" vertex="1">
                    <mxGeometry x="1970" y="490" width="140" height="30" as="geometry"/>
                </mxCell>
                <mxCell id="190" value="&lt;font style=&quot;font-size: 20px&quot;&gt;ExternalData&lt;/font&gt;" style="text;html=1;align=center;verticalAlign=middle;resizable=0;points=[];autosize=1;strokeColor=none;fontSize=22;" parent="1" vertex="1">
                    <mxGeometry x="2205" y="50" width="130" height="30" as="geometry"/>
                </mxCell>
                <mxCell id="192" value="&lt;h1 class=&quot;word&quot; style=&quot;text-align: left ; box-sizing: border-box ; margin: 0px ; padding: 0px ; height: auto ; line-height: 14px&quot;&gt;&lt;span style=&quot;font-weight: normal&quot;&gt;&lt;font style=&quot;font-size: 20px&quot; color=&quot;#ffffff&quot;&gt;MultimediaData&lt;/font&gt;&lt;/span&gt;&lt;/h1&gt;&lt;h1 class=&quot;word&quot; style=&quot;text-align: left ; box-sizing: border-box ; margin: 0px ; padding: 0px ; height: auto ; line-height: 14px&quot;&gt;&lt;span style=&quot;font-weight: normal&quot;&gt;&lt;font style=&quot;font-size: 20px&quot; color=&quot;#ffffff&quot;&gt;&amp;nbsp;&lt;/font&gt;&lt;/span&gt;&lt;/h1&gt;" style="text;html=1;align=center;verticalAlign=middle;resizable=0;points=[];autosize=1;strokeColor=none;fontSize=20;" parent="1" vertex="1">
                    <mxGeometry x="2210" y="430" width="150" height="50" as="geometry"/>
                </mxCell>
                <mxCell id="194" value="&lt;h1 class=&quot;word&quot; style=&quot;text-align: left ; box-sizing: border-box ; margin: 0px ; padding: 0px ; height: auto ; line-height: 14px&quot;&gt;&lt;span style=&quot;font-weight: normal&quot;&gt;&lt;font style=&quot;font-size: 20px&quot; color=&quot;#ffffff&quot;&gt;MultimediaData&lt;/font&gt;&lt;/span&gt;&lt;/h1&gt;&lt;h1 class=&quot;word&quot; style=&quot;text-align: left ; box-sizing: border-box ; margin: 0px ; padding: 0px ; height: auto ; line-height: 14px&quot;&gt;&lt;span style=&quot;font-weight: normal&quot;&gt;&lt;font style=&quot;font-size: 20px&quot; color=&quot;#ffffff&quot;&gt;&amp;nbsp;&lt;/font&gt;&lt;/span&gt;&lt;/h1&gt;" style="text;html=1;align=center;verticalAlign=middle;resizable=0;points=[];autosize=1;strokeColor=none;fontSize=20;" parent="1" vertex="1">
                    <mxGeometry x="2220" y="520" width="150" height="50" as="geometry"/>
                </mxCell>
                <mxCell id="195" value="" style="shape=datastore;whiteSpace=wrap;html=1;labelBackgroundColor=none;fontSize=16;strokeWidth=3;" parent="1" vertex="1">
                    <mxGeometry x="1150" y="190" width="60" height="70" as="geometry"/>
                </mxCell>
                <mxCell id="196" value="User&amp;nbsp;authentication" style="text;html=1;align=center;verticalAlign=middle;resizable=0;points=[];autosize=1;strokeColor=none;fontSize=22;" parent="1" vertex="1">
                    <mxGeometry x="920" y="190" width="210" height="30" as="geometry"/>
                </mxCell>
                <mxCell id="197" value="API permission" style="text;html=1;align=center;verticalAlign=middle;resizable=0;points=[];autosize=1;strokeColor=none;fontSize=22;" parent="1" vertex="1">
                    <mxGeometry x="960" y="240" width="160" height="30" as="geometry"/>
                </mxCell>
                <mxCell id="198" value="" style="shape=datastore;whiteSpace=wrap;html=1;labelBackgroundColor=none;fontSize=16;strokeWidth=3;" parent="1" vertex="1">
                    <mxGeometry x="1241" y="190" width="60" height="70" as="geometry"/>
                </mxCell>
                <mxCell id="200" value="cache/backups" style="text;html=1;align=center;verticalAlign=middle;resizable=0;points=[];autosize=1;strokeColor=none;fontSize=22;" parent="1" vertex="1">
                    <mxGeometry x="1300" y="210" width="160" height="30" as="geometry"/>
                </mxCell>
                <mxCell id="201" value="" style="edgeStyle=elbowEdgeStyle;elbow=horizontal;endArrow=classic;html=1;shadow=0;fontSize=20;startSize=0;endSize=0;targetPerimeterSpacing=0;strokeWidth=3;startArrow=classic;startFill=1;exitX=0.25;exitY=0;exitDx=0;exitDy=0;entryX=0.5;entryY=1;entryDx=0;entryDy=0;" parent="1" source="140" target="195" edge="1">
                    <mxGeometry width="50" height="50" relative="1" as="geometry">
                        <mxPoint x="1580" y="420" as="sourcePoint"/>
                        <mxPoint x="1310" y="280" as="targetPoint"/>
                        <Array as="points">
                            <mxPoint x="1178" y="300"/>
                            <mxPoint x="1338" y="350"/>
                            <mxPoint x="1330" y="360"/>
                            <mxPoint x="1580" y="390"/>
                            <mxPoint x="1370" y="330"/>
                            <mxPoint x="1450" y="370"/>
                            <mxPoint x="1320" y="65"/>
                        </Array>
                    </mxGeometry>
                </mxCell>
                <mxCell id="202" value="" style="edgeStyle=elbowEdgeStyle;elbow=horizontal;endArrow=classic;html=1;shadow=0;fontSize=20;startSize=0;endSize=0;targetPerimeterSpacing=0;strokeWidth=3;startArrow=classic;startFill=1;exitX=0.75;exitY=0;exitDx=0;exitDy=0;entryX=0.5;entryY=1;entryDx=0;entryDy=0;" parent="1" source="140" target="198" edge="1">
                    <mxGeometry width="50" height="50" relative="1" as="geometry">
                        <mxPoint x="1490" y="409.9600000000005" as="sourcePoint"/>
                        <mxPoint x="1440" y="310" as="targetPoint"/>
                        <Array as="points">
                            <mxPoint x="1270" y="300"/>
                            <mxPoint x="1640" y="450"/>
                            <mxPoint x="1590" y="400"/>
                            <mxPoint x="1380" y="340"/>
                            <mxPoint x="1460" y="380"/>
                            <mxPoint x="1330" y="75"/>
                        </Array>
                    </mxGeometry>
                </mxCell>
                <mxCell id="203" value="" style="shape=datastore;whiteSpace=wrap;html=1;labelBackgroundColor=none;fontSize=16;strokeWidth=3;" parent="1" vertex="1">
                    <mxGeometry x="2140" y="820" width="60" height="70" as="geometry"/>
                </mxCell>
                <mxCell id="204" value="" style="edgeStyle=elbowEdgeStyle;elbow=horizontal;endArrow=classic;html=1;shadow=0;fontSize=20;startSize=0;endSize=0;targetPerimeterSpacing=0;strokeWidth=3;startArrow=classic;startFill=1;exitX=1;exitY=0.5;exitDx=0;exitDy=0;entryX=0;entryY=0.7;entryDx=0;entryDy=0;" parent="1" source="142" target="203" edge="1">
                    <mxGeometry width="50" height="50" relative="1" as="geometry">
                        <mxPoint x="1930" y="869.1700000000005" as="sourcePoint"/>
                        <mxPoint x="2070" y="770" as="targetPoint"/>
                        <Array as="points">
                            <mxPoint x="2110" y="869.1700000000001"/>
                            <mxPoint x="2090" y="869.1700000000001"/>
                            <mxPoint x="2040" y="819.1700000000001"/>
                            <mxPoint x="1830" y="759.1700000000001"/>
                            <mxPoint x="1910" y="799.1700000000001"/>
                            <mxPoint x="1780" y="494.1700000000001"/>
                        </Array>
                    </mxGeometry>
                </mxCell>
                <mxCell id="206" value="Industrial chain/CompanyRelation" style="text;html=1;align=center;verticalAlign=middle;resizable=0;points=[];autosize=1;strokeColor=none;fontSize=22;" parent="1" vertex="1">
                    <mxGeometry x="2220" y="850" width="340" height="30" as="geometry"/>
                </mxCell>
                <mxCell id="207" value="" style="edgeStyle=elbowEdgeStyle;elbow=horizontal;endArrow=classic;html=1;shadow=0;fontSize=20;startSize=0;endSize=0;targetPerimeterSpacing=0;strokeWidth=3;startArrow=classic;startFill=1;exitX=1;exitY=0.25;exitDx=0;exitDy=0;entryX=0;entryY=0.5;entryDx=0;entryDy=0;" parent="1" source="140" target="138" edge="1">
                    <mxGeometry width="50" height="50" relative="1" as="geometry">
                        <mxPoint x="495" y="200" as="sourcePoint"/>
                        <mxPoint x="770" y="-180" as="targetPoint"/>
                        <Array as="points">
                            <mxPoint x="1640" y="210"/>
                            <mxPoint x="1675" y="280"/>
                            <mxPoint x="1710" y="350"/>
                            <mxPoint x="855" y="260"/>
                            <mxPoint x="495" y="-70"/>
                        </Array>
                    </mxGeometry>
                </mxCell>
                <mxCell id="208" value="" style="edgeStyle=elbowEdgeStyle;elbow=horizontal;endArrow=classic;html=1;shadow=0;fontSize=20;startSize=0;endSize=0;targetPerimeterSpacing=0;strokeWidth=3;startArrow=classic;startFill=1;exitX=1;exitY=0.5;exitDx=0;exitDy=0;entryX=0;entryY=0.5;entryDx=0;entryDy=0;" parent="1" source="140" target="139" edge="1">
                    <mxGeometry width="50" height="50" relative="1" as="geometry">
                        <mxPoint x="1010" y="280" as="sourcePoint"/>
                        <mxPoint x="1040" y="390" as="targetPoint"/>
                        <Array as="points">
                            <mxPoint x="1710" y="430"/>
                            <mxPoint x="1610" y="370"/>
                            <mxPoint x="990" y="330"/>
                            <mxPoint x="505" y="-60"/>
                        </Array>
                    </mxGeometry>
                </mxCell>
                <mxCell id="214" value="" style="edgeStyle=elbowEdgeStyle;elbow=horizontal;endArrow=classic;html=1;shadow=0;fontSize=20;startSize=0;endSize=0;targetPerimeterSpacing=0;strokeWidth=3;startArrow=classic;startFill=1;exitX=0.75;exitY=1;exitDx=0;exitDy=0;entryX=0;entryY=0.5;entryDx=0;entryDy=0;" parent="1" source="140" target="142" edge="1">
                    <mxGeometry width="50" height="50" relative="1" as="geometry">
                        <mxPoint x="912.5" y="490" as="sourcePoint"/>
                        <mxPoint x="1050" y="880" as="targetPoint"/>
                        <Array as="points">
                            <mxPoint x="1273" y="690"/>
                            <mxPoint x="855" y="770"/>
                            <mxPoint x="535" y="-30"/>
                        </Array>
                    </mxGeometry>
                </mxCell>
                <mxCell id="215" value="" style="endArrow=classic;dashed=1;html=1;dashPattern=1 3;strokeWidth=3;shadow=0;fontSize=16;startSize=0;endSize=0;targetPerimeterSpacing=0;exitX=1;exitY=0.5;exitDx=0;exitDy=0;entryX=0;entryY=0.5;entryDx=0;entryDy=0;startArrow=classic;startFill=1;endFill=1;" parent="1" source="138" target="146" edge="1">
                    <mxGeometry width="50" height="50" relative="1" as="geometry">
                        <mxPoint x="1940" y="95" as="sourcePoint"/>
                        <mxPoint x="2150" y="-25" as="targetPoint"/>
                        <Array as="points"/>
                    </mxGeometry>
                </mxCell>
                <mxCell id="168" value="dynamic link" style="text;html=1;align=center;verticalAlign=middle;resizable=0;points=[];autosize=1;strokeColor=#666666;fontSize=22;direction=west;labelBackgroundColor=none;fontColor=#333333;rounded=1;shadow=0;fillColor=#FFFFFF;" parent="1" vertex="1">
                    <mxGeometry x="1970" y="80" width="140" height="30" as="geometry"/>
                </mxCell>
                <mxCell id="216" value="" style="endArrow=classic;dashed=1;html=1;dashPattern=1 3;strokeWidth=3;shadow=0;fontSize=16;startSize=0;endSize=0;targetPerimeterSpacing=0;exitX=1;exitY=0.75;exitDx=0;exitDy=0;entryX=0.389;entryY=0.5;entryDx=0;entryDy=0;startArrow=classic;startFill=1;endFill=1;entryPerimeter=0;" parent="1" source="138" target="150" edge="1">
                    <mxGeometry width="50" height="50" relative="1" as="geometry">
                        <mxPoint x="1940" y="125" as="sourcePoint"/>
                        <mxPoint x="2150" y="80" as="targetPoint"/>
                        <Array as="points"/>
                    </mxGeometry>
                </mxCell>
                <mxCell id="169" value="dynamic link" style="text;html=1;align=center;verticalAlign=middle;resizable=0;points=[];autosize=1;strokeColor=#666666;fontSize=22;direction=west;labelBackgroundColor=none;fontColor=#333333;rounded=1;shadow=0;fillColor=#FFFFFF;" parent="1" vertex="1">
                    <mxGeometry x="1970" y="140" width="140" height="30" as="geometry"/>
                </mxCell>
                <mxCell id="218" value="" style="endArrow=classic;dashed=1;html=1;dashPattern=1 3;strokeWidth=3;shadow=0;fontSize=16;startSize=0;endSize=0;targetPerimeterSpacing=0;exitX=1;exitY=0.25;exitDx=0;exitDy=0;entryX=0;entryY=0.5;entryDx=0;entryDy=0;startArrow=classic;startFill=1;endFill=1;" parent="1" source="139" target="174" edge="1">
                    <mxGeometry width="50" height="50" relative="1" as="geometry">
                        <mxPoint x="1940" y="245" as="sourcePoint"/>
                        <mxPoint x="2150" y="255" as="targetPoint"/>
                        <Array as="points"/>
                    </mxGeometry>
                </mxCell>
                <mxCell id="186" value="dynamic link" style="text;html=1;align=center;verticalAlign=middle;resizable=0;points=[];autosize=1;strokeColor=#666666;fontSize=22;direction=west;labelBackgroundColor=none;fontColor=#333333;rounded=1;shadow=0;fillColor=#FFFFFF;" parent="1" vertex="1">
                    <mxGeometry x="1970" y="360" width="140" height="30" as="geometry"/>
                </mxCell>
                <mxCell id="219" value="" style="endArrow=classic;dashed=1;html=1;dashPattern=1 3;strokeWidth=3;shadow=0;fontSize=16;startSize=0;endSize=0;targetPerimeterSpacing=0;exitX=1;exitY=0.5;exitDx=0;exitDy=0;entryX=0;entryY=0.5;entryDx=0;entryDy=0;startArrow=classic;startFill=1;endFill=1;" parent="1" source="139" target="175" edge="1">
                    <mxGeometry width="50" height="50" relative="1" as="geometry">
                        <mxPoint x="1940" y="410" as="sourcePoint"/>
                        <mxPoint x="2150" y="355" as="targetPoint"/>
                        <Array as="points"/>
                    </mxGeometry>
                </mxCell>
                <mxCell id="187" value="dynamic link" style="text;html=1;align=center;verticalAlign=middle;resizable=0;points=[];autosize=1;strokeColor=#666666;fontSize=22;direction=west;labelBackgroundColor=none;fontColor=#333333;rounded=1;shadow=0;fillColor=#FFFFFF;" parent="1" vertex="1">
                    <mxGeometry x="1970" y="420" width="140" height="30" as="geometry"/>
                </mxCell>
                <mxCell id="221" value="" style="endArrow=classic;dashed=1;html=1;dashPattern=1 3;strokeWidth=3;shadow=0;fontSize=16;startSize=0;endSize=0;targetPerimeterSpacing=0;exitX=1;exitY=0.75;exitDx=0;exitDy=0;entryX=0.396;entryY=0.571;entryDx=0;entryDy=0;startArrow=classic;startFill=1;endFill=1;entryPerimeter=0;" parent="1" source="139" target="176" edge="1">
                    <mxGeometry width="50" height="50" relative="1" as="geometry">
                        <mxPoint x="1940" y="410" as="sourcePoint"/>
                        <mxPoint x="2150" y="530" as="targetPoint"/>
                        <Array as="points"/>
                    </mxGeometry>
                </mxCell>
                <mxCell id="224" value="" style="edgeStyle=elbowEdgeStyle;elbow=horizontal;endArrow=classic;html=1;shadow=0;fontSize=20;startSize=0;endSize=0;targetPerimeterSpacing=0;strokeWidth=3;startArrow=classic;startFill=1;exitX=1;exitY=0.75;exitDx=0;exitDy=0;entryX=0;entryY=0.5;entryDx=0;entryDy=0;" parent="1" source="140" target="141" edge="1">
                    <mxGeometry width="50" height="50" relative="1" as="geometry">
                        <mxPoint x="1330" y="430" as="sourcePoint"/>
                        <mxPoint x="1750" y="430" as="targetPoint"/>
                        <Array as="points">
                            <mxPoint x="1650" y="570"/>
                            <mxPoint x="1720" y="440"/>
                            <mxPoint x="1620" y="380"/>
                            <mxPoint x="1000" y="340"/>
                            <mxPoint x="515" y="-50"/>
                        </Array>
                    </mxGeometry>
                </mxCell>
            </root>
        </mxGraphModel>
    </diagram>
</mxfile>